<?xml version="1.0" encoding="UTF-8"?>
<svg id="Layer_1" data-name="Layer 1" xmlns="http://www.w3.org/2000/svg" viewBox="0 0 36.63 30.67">
  <path d="m13.05,26.39V6.07c0-1.77-1.12-2.51-3.21-2.79v-1.49h13.95c8.46,0,12.83,3.39,12.83,9.07s-4.37,9.21-12.83,9.21h-1.86c-1.91,0-2.56.79-2.56,2.65v3.67c0,1.77,1.12,2.51,3.67,2.79v1.49h-13.2v-1.49c2.09-.28,3.21-1.02,3.21-2.79Zm8.88-8.28h1.86c4.93,0,6.56-3.07,6.56-7.16s-1.63-7.25-6.56-7.25h-1.91c-1.86,0-2.51.84-2.51,2.6v9.16c0,1.86.65,2.65,2.56,2.65Z" style="fill: #263535; stroke-width: 0px;"/>
  <path d="m14.07,3.9c.22.14.41.31.56.5-.19-.17-.38-.33-.56-.5-1.16-.76-3.24-.84-5.58.88-2.9,2.13-6.72,1.57-8.5.09C2.54,3.15,3.86.04,7.29,0c3.17-.04,4.62,1.92,6.78,3.89Z" style="fill: #263535; stroke-width: 0px;"/>
</svg>