<svg width="688" height="138" viewBox="0 0 688 138" fill="none" xmlns="http://www.w3.org/2000/svg">
<g clip-path="url(#clip0_1248_1730)">
<path d="M673.35 137.2C665.95 137.2 659.75 131 659.75 123.4C659.75 115.8 665.95 109.6 673.35 109.6C680.75 109.6 686.95 115.8 686.95 123.4C686.95 131 680.75 137.2 673.35 137.2Z" fill="#263535"/>
<path d="M579.789 129.8C589.189 129 592.589 126.2 592.589 117V66.6C592.589 57.4 588.789 55 579.789 55.8V49.6L607.789 44.4C613.589 43.4 616.589 46 616.589 50.6V54.8C616.589 58.4 619.389 59 621.989 56C626.389 51 633.789 43.6 645.989 43.6C658.989 43.6 666.789 52 666.789 62C666.789 70.4 661.389 76.8 652.189 76.8C635.389 76.8 646.989 56.4 633.989 56.4C624.589 56.4 616.589 67.2 616.589 92.6V117C616.589 126.2 619.989 129 630.189 129.8V136H579.789V129.8Z" fill="#263535"/>
<path d="M537.38 137.2C512.38 137.2 489.18 121.4 489.18 91C489.18 59.6 513.58 44 538.58 44C559.38 44 574.58 54.8 574.58 71.2C574.58 87.2 560.38 89.8 538.18 91.2L521.58 92.2C517.98 92.4 516.38 94.2 516.38 98.6C516.38 113.4 531.78 123.6 548.58 123.6C556.38 123.6 565.98 121.4 572.98 113L577.78 117.2C573.98 124.6 559.78 137.2 537.38 137.2ZM515.18 77.6C515.18 83.8 516.98 85.8 521.78 85.6L532.18 85C548.18 84 552.18 80.6 552.18 71.4C552.18 61.2 547.38 51.6 535.38 51.6C520.38 51.6 515.18 66.4 515.18 77.6Z" fill="#263535"/>
<path d="M465.462 137C449.062 137 438.663 128.2 438.663 110V61.2C438.663 55 437.063 53.8 433.263 53.8H424.062V48.2C438.263 44.2 445.663 37.2 452.062 26.4C453.263 24.4 454.462 23.8 456.462 23.8H459.263C461.463 23.8 462.862 25.2 462.862 27.4L462.663 40.4C462.663 44.6 464.462 45.8 474.062 45.8H488.062V55L474.062 54.2C464.462 53.6 462.663 55.4 462.663 61.6V108.4C462.663 119.8 464.262 127.2 474.062 127.2C477.663 127.2 481.463 126.2 484.663 123.6C487.263 126.4 487.662 128.8 485.862 130.4C481.662 134.2 474.662 137 465.462 137Z" fill="#263535"/>
<path d="M410.87 137.2C400.47 137.2 392.87 131.4 392.87 118.6V82.4C392.87 68.6 386.07 58 373.67 58C361.07 58 353.87 68.6 353.87 82.4V117C353.87 126.2 357.27 129 366.47 129.8V136H317.07V129.8C326.47 129 329.87 126.2 329.87 117V66.6C329.87 57.4 326.07 55 317.07 55.8V49.6L345.07 44.4C350.87 43.4 353.87 46 353.87 50.6C353.87 57.8 357.07 59.6 359.67 56.6C363.87 51.6 371.47 43.6 387.27 43.6C402.07 43.6 416.87 50.8 416.87 77.8V118.6C416.87 125.4 420.27 128.2 426.07 126.4V130C423.47 135.2 416.87 137.2 410.87 137.2Z" fill="#263535"/>
<path d="M248.364 137.2C234.764 137.2 222.164 130.8 222.164 115.2C222.164 99 235.764 89.2 274.764 83.6C280.364 82.8 281.964 81.4 281.964 76.2V73C281.964 58.6 277.364 51.2 265.964 51.2C243.164 51.2 260.564 77.8 239.764 77.8C231.764 77.8 227.964 72.8 227.964 66.4C227.964 51 249.764 44 271.764 44C295.364 44 305.964 52.6 305.964 80.4V118.6C305.964 125.4 308.364 128.4 314.164 126.4V130C311.564 135.2 305.764 137.2 299.564 137.2C288.364 137.2 283.164 130.6 282.364 123.4C282.164 121 280.564 120.6 278.764 122.8C273.164 129.8 262.764 137.2 248.364 137.2ZM246.764 110.4C246.764 117.6 250.964 123.8 260.764 123.8C272.964 123.8 281.964 114.4 281.964 101.8V96.6C281.964 92 280.364 90 273.964 90.6C251.764 92.6 246.764 102.6 246.764 110.4Z" fill="#263535"/>
<path d="M203.058 137.2C192.658 137.2 185.058 131.4 185.058 118.6V27.4C185.058 18.2 181.258 15.8 172.258 16.6V10.4L200.258 5.2C206.058 4.2 209.058 6.8 209.058 12.2V118.6C209.058 125.4 212.458 128.2 218.258 126.4V130C215.658 135.2 209.058 137.2 203.058 137.2Z" fill="#263535"/>
<path d="M58.0859 129.6C67.0859 128.4 71.8859 125.2 71.8859 117.6V30.2C71.8859 22.6 67.0859 19.4 58.0859 18.2V11.8H118.086C154.486 11.8 173.286 26.4 173.286 50.8C173.286 74.8 154.486 90.4 118.086 90.4H110.086C101.886 90.4 99.0859 93.8 99.0859 101.8V117.6C99.0859 125.2 103.886 128.4 114.886 129.6V136H58.0859V129.6ZM99.0859 70.6C99.0859 78.6 101.886 82 110.086 82H118.086C139.286 82 146.286 68.8 146.286 51.2C146.286 33 139.286 20 118.086 20H109.886C101.886 20 99.0859 23.6 99.0859 31.2V70.6Z" fill="#263535"/>
<path d="M84.1786 23.9799C85.5009 24.8402 86.6255 25.8472 87.5253 26.9547C86.3742 25.9667 85.2615 24.9728 84.1786 23.9799C77.2603 19.4795 64.9294 18.9989 51.0617 29.1925C33.8469 41.8464 11.161 38.5115 0.587402 29.744C15.6734 19.5534 23.5056 1.08839 43.9001 0.846231C62.7058 0.622936 71.3605 12.2284 84.1786 23.9799Z" fill="#263535"/>
</g>
<defs>
<clipPath id="clip0_1248_1730">
<rect width="688" height="138" fill="white"/>
</clipPath>
</defs>
</svg>
